<?xml version="1.0" standalone="no"?>
<!DOCTYPE svg PUBLIC "-//W3C//DTD SVG 20010904//EN"
 "http://www.w3.org/TR/2001/REC-SVG-20010904/DTD/svg10.dtd">
<svg version="1.0" xmlns="http://www.w3.org/2000/svg"
 width="864.000000pt" height="864.000000pt" viewBox="0 0 864.000000 864.000000"
 preserveAspectRatio="xMidYMid meet">
<metadata>
Created by potrace 1.14, written by Peter Selinger 2001-2017
</metadata>
<g transform="translate(0.000000,864.000000) scale(0.100000,-0.100000)"
fill="#000000" stroke="none">
<path d="M4088 8635 c-2 -2 -48 -6 -103 -9 -55 -4 -134 -11 -175 -17 -41 -5
-93 -12 -115 -15 -38 -4 -54 -7 -115 -19 -14 -3 -41 -8 -60 -11 -33 -5 -60 -9
-105 -18 -82 -17 -352 -92 -455 -126 -502 -169 -1001 -444 -1376 -758 -20 -17
-108 -92 -147 -125 -79 -67 -296 -290 -387 -396 -30 -35 -60 -69 -65 -75 -6
-6 -24 -29 -40 -51 -17 -22 -32 -42 -36 -45 -3 -3 -25 -32 -50 -65 -24 -33
-50 -66 -57 -73 -6 -7 -12 -17 -12 -22 0 -5 -6 -15 -13 -22 -7 -7 -42 -58 -78
-113 -193 -296 -355 -631 -472 -975 -35 -102 -101 -330 -111 -380 -2 -14 -9
-45 -15 -70 -12 -52 -21 -97 -25 -125 -2 -11 -8 -47 -15 -80 -6 -33 -13 -80
-16 -105 -3 -25 -9 -76 -15 -115 -30 -228 -34 -812 -6 -960 2 -11 7 -47 10
-80 7 -59 22 -159 30 -201 2 -12 7 -37 10 -55 31 -194 141 -585 205 -732 11
-26 21 -51 22 -55 14 -66 177 -410 266 -560 24 -41 43 -76 43 -78 0 -3 8 -17
19 -32 10 -15 51 -76 91 -137 72 -108 238 -334 269 -366 9 -9 36 -41 61 -70
103 -121 256 -278 370 -379 110 -97 129 -114 143 -125 147 -119 177 -141 333
-248 145 -98 130 -89 279 -175 297 -172 644 -318 965 -407 122 -34 311 -78
380 -89 19 -3 46 -8 60 -11 25 -5 202 -31 275 -39 123 -15 246 -20 465 -20
274 -1 392 7 612 39 340 49 664 134 983 260 137 54 420 190 545 262 110 64
309 191 327 209 8 8 18 14 23 14 5 0 15 6 22 13 7 6 40 32 73 56 33 25 62 47
65 50 3 4 23 19 45 36 22 16 45 34 51 40 6 5 37 33 69 60 414 358 760 790
1000 1250 29 55 60 116 71 135 10 19 19 37 19 40 1 3 16 37 34 75 18 39 39 88
48 110 8 22 23 58 33 81 16 35 103 296 145 434 40 131 103 455 120 613 4 32 8
68 11 80 24 127 24 768 0 917 -3 14 -7 48 -10 75 -4 28 -9 70 -12 95 -3 25 -9
65 -14 90 -10 46 -16 77 -26 140 -10 60 -82 341 -110 425 -14 44 -27 87 -29
95 -7 26 -50 139 -105 275 -68 167 -181 391 -281 560 -122 205 -306 457 -454
624 -116 131 -313 330 -384 388 -19 16 -50 43 -70 61 -20 18 -70 59 -111 90
-41 31 -79 62 -85 68 -5 6 -39 31 -75 56 -229 160 -422 275 -625 373 -77 37
-148 71 -157 76 -44 23 -284 115 -393 151 -106 35 -347 102 -408 114 -12 2
-47 9 -77 15 -30 7 -64 13 -75 15 -11 2 -33 6 -50 9 -68 13 -82 15 -130 21
-27 3 -60 7 -73 9 -13 2 -53 7 -90 10 -37 3 -87 8 -112 11 -47 6 -567 14 -572
9z"/>
</g>
</svg>
